<svg width="24" height="24" fill="none" xmlns="http://www.w3.org/2000/svg"><g clip-path="url('#clip0_1578_1388')"><path d="M14.66 5.217a5.217 5.217 0 0 1 4.123 4.122M14.66 1.043a9.391 9.391 0 0 1 8.295 8.285m-1.043 8.327v3.13a2.087 2.087 0 0 1-2.275 2.087 20.651 20.651 0 0 1-9.005-3.203 20.349 20.349 0 0 1-6.26-6.26A20.65 20.65 0 0 1 1.168 4.36a2.087 2.087 0 0 1 2.076-2.275h3.13a2.087 2.087 0 0 1 2.088 1.795c.132 1.002.377 1.986.73 2.932a2.087 2.087 0 0 1-.47 2.202L7.398 10.34a16.695 16.695 0 0 0 6.261 6.261l1.325-1.325a2.087 2.087 0 0 1 2.202-.47c.947.354 1.93.599 2.932.73a2.087 2.087 0 0 1 1.795 2.12Z" stroke="#4E5F6E" stroke-width="1.5" stroke-linecap="round" stroke-linejoin="round"/></g><defs><clipPath id="clip0_1578_1388"><path fill="#fff" d="M0 0h24v24H0z"/></clipPath></defs></svg>