<svg width="24" height="24" viewBox="0 0 24 24" fill="none" xmlns="http://www.w3.org/2000/svg">
<g clip-path="url(#clip0_1568_1388)">
<path d="M14.6609 5.21688C15.6801 5.41573 16.6167 5.91419 17.351 6.64847C18.0853 7.38274 18.5837 8.31942 18.7826 9.33862M14.6609 1.04297C16.7784 1.27821 18.753 2.22646 20.2604 3.73202C21.7679 5.23758 22.7186 7.21098 22.9565 9.32819M21.913 17.6551V20.7856C21.9142 21.0762 21.8547 21.3638 21.7383 21.6301C21.6218 21.8964 21.4511 22.1354 21.2369 22.3319C21.0228 22.5283 20.77 22.6779 20.4947 22.771C20.2194 22.8641 19.9277 22.8987 19.6383 22.8725C16.4273 22.5236 13.3429 21.4264 10.633 19.6691C8.11181 18.067 5.97426 15.9294 4.37217 13.4082C2.60866 10.686 1.5112 7.58662 1.16869 4.36123C1.14261 4.07267 1.1769 3.78185 1.26938 3.50727C1.36186 3.2327 1.5105 2.98038 1.70583 2.7664C1.90117 2.55242 2.13892 2.38145 2.40395 2.26438C2.66898 2.14732 2.95548 2.08672 3.24521 2.08645H6.37564C6.88205 2.08146 7.37299 2.26079 7.75696 2.591C8.14093 2.92122 8.39172 3.37978 8.4626 3.88123C8.59473 4.88304 8.83977 5.86668 9.19304 6.8134C9.33343 7.18689 9.36381 7.59279 9.28059 7.98302C9.19737 8.37324 9.00402 8.73143 8.72347 9.01514L7.39825 10.3404C8.8837 12.9528 11.0467 15.1158 13.6591 16.6012L14.9843 15.276C15.268 14.9955 15.6262 14.8021 16.0165 14.7189C16.4067 14.6357 16.8126 14.6661 17.1861 14.8064C18.1328 15.1597 19.1164 15.4048 20.1183 15.5369C20.6251 15.6084 21.0881 15.8637 21.419 16.2543C21.7499 16.6448 21.9257 17.1434 21.913 17.6551Z" stroke="#4E5F6E" stroke-width="1.5" stroke-linecap="round" stroke-linejoin="round"/>
</g>
<defs>
<clipPath id="clip0_1568_1388">
<rect width="24" height="24" fill="white"/>
</clipPath>
</defs>
</svg>
