<svg width="24" height="24" viewBox="0 0 24 24" fill="none" xmlns="http://www.w3.org/2000/svg">
<g clip-path="url(#clip0_25_639)">
<path d="M14.6608 5.21739C15.68 5.41624 16.6167 5.9147 17.351 6.64898C18.0852 7.38325 18.5837 8.31993 18.7825 9.33913M14.6608 1.04348C16.7783 1.27872 18.7529 2.22697 20.2604 3.73253C21.7678 5.2381 22.7185 7.21149 22.9565 9.3287M21.913 17.6557V20.7861C21.9142 21.0767 21.8546 21.3644 21.7382 21.6306C21.6218 21.8969 21.451 22.1359 21.2369 22.3324C21.0227 22.5288 20.7699 22.6784 20.4946 22.7715C20.2193 22.8646 19.9276 22.8992 19.6382 22.873C16.4272 22.5241 13.3429 21.4269 10.633 19.6696C8.11175 18.0675 5.97419 15.9299 4.3721 13.4087C2.6086 10.6865 1.51114 7.58713 1.16863 4.36174C1.14255 4.07318 1.17684 3.78236 1.26932 3.50778C1.3618 3.23321 1.51044 2.98089 1.70577 2.76691C1.90111 2.55293 2.13886 2.38196 2.40389 2.26489C2.66891 2.14783 2.95542 2.08723 3.24515 2.08696H6.37558C6.88199 2.08197 7.37293 2.2613 7.7569 2.59151C8.14087 2.92173 8.39166 3.38029 8.46254 3.88174C8.59467 4.88355 8.8397 5.8672 9.19297 6.81391C9.33337 7.1874 9.36375 7.5933 9.28053 7.98353C9.19731 8.37375 9.00396 8.73194 8.72341 9.01565L7.39819 10.3409C8.88364 12.9533 11.0467 15.1163 13.6591 16.6017L14.9843 15.2765C15.268 14.996 15.6262 14.8026 16.0164 14.7194C16.4066 14.6362 16.8125 14.6666 17.186 14.807C18.1327 15.1602 19.1164 15.4053 20.1182 15.5374C20.6251 15.6089 21.088 15.8642 21.4189 16.2548C21.7498 16.6453 21.9257 17.1439 21.913 17.6557Z" stroke="black" stroke-width="1.5" stroke-linecap="round" stroke-linejoin="round"/>
</g>
<defs>
<clipPath id="clip0_25_639">
<rect width="24" height="24" fill="white"/>
</clipPath>
</defs>
</svg>
